# xmcd CD database file
#
# Track frame offsets:
#	150
#	16501
#	33265
#	45684
#	69839
#	89657
#	108042
#	121844
#
# Disc length: 1735 seconds
#
# Revision: 0
# Processed by: cddbd v1.5.1PL0 Copyright (c) Steve Scherf et al.
# Submitted via: CDex 1.51
#
DISCID=5306c508
DTITLE=Kellee Patterson - Maiden Voyage
DYEAR=1973
DGENRE=Jazz
TTITLE0=Magic Wand Of Love
TTITLE1=Look At The Child
TTITLE2=Soul Daddy (Lady)
TTITLE3=Maiden Voyage
TTITLE4=Don't Misunderstand
TTITLE5=See You Later
TTITLE6=You
TTITLE7=Be All Your Own
EXTD=YEAR: 1973
EXTT0=
EXTT1=
EXTT2=
EXTT3=
EXTT4=
EXTT5=
EXTT6=
EXTT7=
PLAYORDER=
